<?xml version="1.0" encoding="UTF-8" standalone="no"?>
<!DOCTYPE svg PUBLIC "-//W3C//DTD SVG 1.1//EN"
 "http://www.w3.org/Graphics/SVG/1.1/DTD/svg11.dtd">
<!-- Generated by graphviz version 2.43.0 (0)
 -->
<!-- Title: G Pages: 1 -->
<svg width="740pt" height="486pt"
 viewBox="0.00 0.00 740.44 485.94" xmlns="http://www.w3.org/2000/svg" xmlns:xlink="http://www.w3.org/1999/xlink">
<g id="graph0" class="graph" transform="scale(1 1) rotate(0) translate(4 481.94)">
<title>G</title>
<polygon fill="white" stroke="transparent" points="-4,4 -4,-481.94 736.44,-481.94 736.44,4 -4,4"/>
<!-- 0 -->
<g id="node1" class="node">
<title>0</title>
<polygon fill="aqua" stroke="black" points="150.22,-274 114.22,-274 114.22,-238 150.22,-238 150.22,-274"/>
<text text-anchor="middle" x="132.22" y="-252.3" font-family="Times,serif" font-size="14.00">AA</text>
</g>
<!-- 1 -->
<g id="node2" class="node">
<title>1</title>
<polygon fill="yellow" stroke="black" points="76,-388.22 0,-388.22 0,-312.22 76,-312.22 76,-388.22"/>
<text text-anchor="middle" x="38" y="-354.02" font-family="Times,serif" font-size="14.00">BB</text>
<text text-anchor="middle" x="38" y="-339.02" font-family="Times,serif" font-size="14.00">flow=13</text>
</g>
<!-- 0&#45;&#45;1 -->
<g id="edge3" class="edge">
<title>0&#45;&#45;1</title>
<path fill="none" stroke="black" d="M114.05,-274.17C103.25,-284.97 89.13,-299.09 76,-312.22"/>
</g>
<!-- 3 -->
<g id="node4" class="node">
<title>3</title>
<polygon fill="yellow" stroke="black" points="264.44,-388.22 188.44,-388.22 188.44,-312.22 264.44,-312.22 264.44,-388.22"/>
<text text-anchor="middle" x="226.44" y="-354.02" font-family="Times,serif" font-size="14.00">DD</text>
<text text-anchor="middle" x="226.44" y="-339.02" font-family="Times,serif" font-size="14.00">flow=20</text>
</g>
<!-- 0&#45;&#45;3 -->
<g id="edge1" class="edge">
<title>0&#45;&#45;3</title>
<path fill="none" stroke="black" d="M150.39,-274.17C161.19,-284.97 175.3,-299.09 188.44,-312.22"/>
</g>
<!-- 8 -->
<g id="node9" class="node">
<title>8</title>
<path fill="none" stroke="black" d="M138.22,-184C138.22,-184 126.22,-184 126.22,-184 120.22,-184 114.22,-178 114.22,-172 114.22,-172 114.22,-160 114.22,-160 114.22,-154 120.22,-148 126.22,-148 126.22,-148 138.22,-148 138.22,-148 144.22,-148 150.22,-154 150.22,-160 150.22,-160 150.22,-172 150.22,-172 150.22,-178 144.22,-184 138.22,-184"/>
<text text-anchor="middle" x="132.22" y="-162.3" font-family="Times,serif" font-size="14.00">II</text>
</g>
<!-- 0&#45;&#45;8 -->
<g id="edge2" class="edge">
<title>0&#45;&#45;8</title>
<path fill="none" stroke="black" d="M132.22,-237.79C132.22,-222.17 132.22,-199.79 132.22,-184.19"/>
</g>
<!-- 2 -->
<g id="node3" class="node">
<title>2</title>
<polygon fill="yellow" stroke="black" points="165.72,-477.94 98.72,-477.94 98.72,-410.94 165.72,-410.94 165.72,-477.94"/>
<text text-anchor="middle" x="132.22" y="-448.24" font-family="Times,serif" font-size="14.00">CC</text>
<text text-anchor="middle" x="132.22" y="-433.24" font-family="Times,serif" font-size="14.00">flow=2</text>
</g>
<!-- 1&#45;&#45;2 -->
<g id="edge4" class="edge">
<title>1&#45;&#45;2</title>
<path fill="none" stroke="black" d="M76.05,-388.27C83.51,-395.73 91.28,-403.5 98.58,-410.8"/>
</g>
<!-- 2&#45;&#45;3 -->
<g id="edge5" class="edge">
<title>2&#45;&#45;3</title>
<path fill="none" stroke="black" d="M165.97,-410.69C173.15,-403.51 180.78,-395.88 188.12,-388.54"/>
</g>
<!-- 4 -->
<g id="node5" class="node">
<title>4</title>
<polygon fill="yellow" stroke="black" points="365.44,-383.72 298.44,-383.72 298.44,-316.72 365.44,-316.72 365.44,-383.72"/>
<text text-anchor="middle" x="331.94" y="-354.02" font-family="Times,serif" font-size="14.00">EE</text>
<text text-anchor="middle" x="331.94" y="-339.02" font-family="Times,serif" font-size="14.00">flow=3</text>
</g>
<!-- 3&#45;&#45;4 -->
<g id="edge6" class="edge">
<title>3&#45;&#45;4</title>
<path fill="none" stroke="black" d="M264.53,-350.22C275.51,-350.22 287.4,-350.22 298.11,-350.22"/>
</g>
<!-- 5 -->
<g id="node6" class="node">
<title>5</title>
<path fill="none" stroke="black" d="M461.44,-368.22C461.44,-368.22 449.44,-368.22 449.44,-368.22 443.44,-368.22 437.44,-362.22 437.44,-356.22 437.44,-356.22 437.44,-344.22 437.44,-344.22 437.44,-338.22 443.44,-332.22 449.44,-332.22 449.44,-332.22 461.44,-332.22 461.44,-332.22 467.44,-332.22 473.44,-338.22 473.44,-344.22 473.44,-344.22 473.44,-356.22 473.44,-356.22 473.44,-362.22 467.44,-368.22 461.44,-368.22"/>
<text text-anchor="middle" x="455.44" y="-346.52" font-family="Times,serif" font-size="14.00">FF</text>
</g>
<!-- 4&#45;&#45;5 -->
<g id="edge7" class="edge">
<title>4&#45;&#45;5</title>
<path fill="none" stroke="black" d="M365.69,-350.22C388.83,-350.22 418.62,-350.22 437.38,-350.22"/>
</g>
<!-- 6 -->
<g id="node7" class="node">
<title>6</title>
<path fill="none" stroke="black" d="M572.44,-369.72C572.44,-369.72 557.44,-369.72 557.44,-369.72 551.44,-369.72 545.44,-363.72 545.44,-357.72 545.44,-357.72 545.44,-342.72 545.44,-342.72 545.44,-336.72 551.44,-330.72 557.44,-330.72 557.44,-330.72 572.44,-330.72 572.44,-330.72 578.44,-330.72 584.44,-336.72 584.44,-342.72 584.44,-342.72 584.44,-357.72 584.44,-357.72 584.44,-363.72 578.44,-369.72 572.44,-369.72"/>
<text text-anchor="middle" x="564.94" y="-346.52" font-family="Times,serif" font-size="14.00">GG</text>
</g>
<!-- 5&#45;&#45;6 -->
<g id="edge8" class="edge">
<title>5&#45;&#45;6</title>
<path fill="none" stroke="black" d="M473.52,-350.22C493.32,-350.22 524.97,-350.22 545.35,-350.22"/>
</g>
<!-- 7 -->
<g id="node8" class="node">
<title>7</title>
<polygon fill="yellow" stroke="black" points="732.44,-388.22 656.44,-388.22 656.44,-312.22 732.44,-312.22 732.44,-388.22"/>
<text text-anchor="middle" x="694.44" y="-354.02" font-family="Times,serif" font-size="14.00">HH</text>
<text text-anchor="middle" x="694.44" y="-339.02" font-family="Times,serif" font-size="14.00">flow=22</text>
</g>
<!-- 6&#45;&#45;7 -->
<g id="edge9" class="edge">
<title>6&#45;&#45;7</title>
<path fill="none" stroke="black" d="M584.61,-350.22C603.57,-350.22 632.77,-350.22 656.3,-350.22"/>
</g>
<!-- 9 -->
<g id="node10" class="node">
<title>9</title>
<polygon fill="yellow" stroke="black" points="170.22,-76 94.22,-76 94.22,0 170.22,0 170.22,-76"/>
<text text-anchor="middle" x="132.22" y="-41.8" font-family="Times,serif" font-size="14.00">JJ</text>
<text text-anchor="middle" x="132.22" y="-26.8" font-family="Times,serif" font-size="14.00">flow=21</text>
</g>
<!-- 8&#45;&#45;9 -->
<g id="edge10" class="edge">
<title>8&#45;&#45;9</title>
<path fill="none" stroke="black" d="M132.22,-147.93C132.22,-129.39 132.22,-99.99 132.22,-76.26"/>
</g>
</g>
</svg>
