<?xml version="1.0" encoding="UTF-8" standalone="no"?>
<!DOCTYPE svg PUBLIC "-//W3C//DTD SVG 1.1//EN"
 "http://www.w3.org/Graphics/SVG/1.1/DTD/svg11.dtd">
<!-- Generated by graphviz version 2.43.0 (0)
 -->
<!-- Title: G Pages: 1 -->
<svg width="2707pt" height="2187pt"
 viewBox="0.00 0.00 2707.46 2187.34" xmlns="http://www.w3.org/2000/svg" xmlns:xlink="http://www.w3.org/1999/xlink">
<g id="graph0" class="graph" transform="scale(1 1) rotate(0) translate(4 2183.34)">
<title>G</title>
<polygon fill="white" stroke="transparent" points="-4,4 -4,-2183.34 2703.46,-2183.34 2703.46,4 -4,4"/>
<!-- 0 -->
<g id="node1" class="node">
<title>0</title>
<path fill="none" stroke="black" d="M2145.86,-1098.83C2145.86,-1098.83 2129.86,-1098.83 2129.86,-1098.83 2123.86,-1098.83 2117.86,-1092.83 2117.86,-1086.83 2117.86,-1086.83 2117.86,-1070.83 2117.86,-1070.83 2117.86,-1064.83 2123.86,-1058.83 2129.86,-1058.83 2129.86,-1058.83 2145.86,-1058.83 2145.86,-1058.83 2151.86,-1058.83 2157.86,-1064.83 2157.86,-1070.83 2157.86,-1070.83 2157.86,-1086.83 2157.86,-1086.83 2157.86,-1092.83 2151.86,-1098.83 2145.86,-1098.83"/>
<text text-anchor="middle" x="2137.86" y="-1075.13" font-family="Times,serif" font-size="14.00">NQ</text>
</g>
<!-- 4 -->
<g id="node5" class="node">
<title>4</title>
<polygon fill="yellow" stroke="black" points="2247.86,-1116.83 2171.86,-1116.83 2171.86,-1040.83 2247.86,-1040.83 2247.86,-1116.83"/>
<text text-anchor="middle" x="2209.86" y="-1082.63" font-family="Times,serif" font-size="14.00">XD</text>
<text text-anchor="middle" x="2209.86" y="-1067.63" font-family="Times,serif" font-size="14.00">flow=10</text>
</g>
<!-- 0&#45;&#45;4 -->
<g id="edge2" class="edge">
<title>0&#45;&#45;4</title>
<path fill="none" stroke="black" d="M2157.92,-1078.83C2162.25,-1078.83 2166.96,-1078.83 2171.72,-1078.83"/>
</g>
<!-- 38 -->
<g id="node39" class="node">
<title>38</title>
<polygon fill="yellow" stroke="black" points="2165.55,-969.31 2089.55,-969.31 2089.55,-893.31 2165.55,-893.31 2165.55,-969.31"/>
<text text-anchor="middle" x="2127.55" y="-935.11" font-family="Times,serif" font-size="14.00">SU</text>
<text text-anchor="middle" x="2127.55" y="-920.11" font-family="Times,serif" font-size="14.00">flow=22</text>
</g>
<!-- 0&#45;&#45;38 -->
<g id="edge1" class="edge">
<title>0&#45;&#45;38</title>
<path fill="none" stroke="black" d="M2136.45,-1058.62C2134.85,-1035.74 2132.21,-997.93 2130.21,-969.45"/>
</g>
<!-- 1 -->
<g id="node2" class="node">
<title>1</title>
<path fill="none" stroke="black" d="M2687.46,-1097.33C2687.46,-1097.33 2674.46,-1097.33 2674.46,-1097.33 2668.46,-1097.33 2662.46,-1091.33 2662.46,-1085.33 2662.46,-1085.33 2662.46,-1072.33 2662.46,-1072.33 2662.46,-1066.33 2668.46,-1060.33 2674.46,-1060.33 2674.46,-1060.33 2687.46,-1060.33 2687.46,-1060.33 2693.46,-1060.33 2699.46,-1066.33 2699.46,-1072.33 2699.46,-1072.33 2699.46,-1085.33 2699.46,-1085.33 2699.46,-1091.33 2693.46,-1097.33 2687.46,-1097.33"/>
<text text-anchor="middle" x="2680.96" y="-1075.13" font-family="Times,serif" font-size="14.00">AB</text>
</g>
<!-- 1&#45;&#45;4 -->
<g id="edge3" class="edge">
<title>1&#45;&#45;4</title>
<path fill="none" stroke="black" d="M2662.2,-1078.83C2591.95,-1078.83 2343.58,-1078.83 2247.86,-1078.83"/>
</g>
<!-- 33 -->
<g id="node34" class="node">
<title>33</title>
<polygon fill="yellow" stroke="black" points="2673.97,-1255.28 2597.97,-1255.28 2597.97,-1179.28 2673.97,-1179.28 2673.97,-1255.28"/>
<text text-anchor="middle" x="2635.97" y="-1221.08" font-family="Times,serif" font-size="14.00">TE</text>
<text text-anchor="middle" x="2635.97" y="-1206.08" font-family="Times,serif" font-size="14.00">flow=24</text>
</g>
<!-- 1&#45;&#45;33 -->
<g id="edge4" class="edge">
<title>1&#45;&#45;33</title>
<path fill="none" stroke="black" d="M2674.89,-1097.5C2668.13,-1118.31 2657.01,-1152.54 2648.39,-1179.08"/>
</g>
<!-- 2 -->
<g id="node3" class="node">
<title>2</title>
<path fill="none" stroke="black" d="M26.5,-1022.89C26.5,-1022.89 14.5,-1022.89 14.5,-1022.89 8.5,-1022.89 2.5,-1016.89 2.5,-1010.89 2.5,-1010.89 2.5,-998.89 2.5,-998.89 2.5,-992.89 8.5,-986.89 14.5,-986.89 14.5,-986.89 26.5,-986.89 26.5,-986.89 32.5,-986.89 38.5,-992.89 38.5,-998.89 38.5,-998.89 38.5,-1010.89 38.5,-1010.89 38.5,-1016.89 32.5,-1022.89 26.5,-1022.89"/>
<text text-anchor="middle" x="20.5" y="-1001.19" font-family="Times,serif" font-size="14.00">IA</text>
</g>
<!-- 23 -->
<g id="node24" class="node">
<title>23</title>
<path fill="none" stroke="black" d="M29,-1173.27C29,-1173.27 12,-1173.27 12,-1173.27 6,-1173.27 0,-1167.27 0,-1161.27 0,-1161.27 0,-1144.27 0,-1144.27 0,-1138.27 6,-1132.27 12,-1132.27 12,-1132.27 29,-1132.27 29,-1132.27 35,-1132.27 41,-1138.27 41,-1144.27 41,-1144.27 41,-1161.27 41,-1161.27 41,-1167.27 35,-1173.27 29,-1173.27"/>
<text text-anchor="middle" x="20.5" y="-1149.07" font-family="Times,serif" font-size="14.00">WF</text>
</g>
<!-- 2&#45;&#45;23 -->
<g id="edge6" class="edge">
<title>2&#45;&#45;23</title>
<path fill="none" stroke="black" d="M20.5,-1023.02C20.5,-1050.63 20.5,-1103.06 20.5,-1132.11"/>
</g>
<!-- 27 -->
<g id="node28" class="node">
<title>27</title>
<polygon fill="yellow" stroke="black" points="74.58,-891.95 7.58,-891.95 7.58,-824.95 74.58,-824.95 74.58,-891.95"/>
<text text-anchor="middle" x="41.08" y="-862.25" font-family="Times,serif" font-size="14.00">CS</text>
<text text-anchor="middle" x="41.08" y="-847.25" font-family="Times,serif" font-size="14.00">flow=3</text>
</g>
<!-- 2&#45;&#45;27 -->
<g id="edge5" class="edge">
<title>2&#45;&#45;27</title>
<path fill="none" stroke="black" d="M23.06,-986.64C26.38,-963.02 32.23,-921.43 36.36,-892.03"/>
</g>
<!-- 3 -->
<g id="node4" class="node">
<title>3</title>
<path fill="none" stroke="black" d="M1796.15,-312.11C1796.15,-312.11 1778.15,-312.11 1778.15,-312.11 1772.15,-312.11 1766.15,-306.11 1766.15,-300.11 1766.15,-300.11 1766.15,-282.11 1766.15,-282.11 1766.15,-276.11 1772.15,-270.11 1778.15,-270.11 1778.15,-270.11 1796.15,-270.11 1796.15,-270.11 1802.15,-270.11 1808.15,-276.11 1808.15,-282.11 1808.15,-282.11 1808.15,-300.11 1808.15,-300.11 1808.15,-306.11 1802.15,-312.11 1796.15,-312.11"/>
<text text-anchor="middle" x="1787.15" y="-287.41" font-family="Times,serif" font-size="14.00">WD</text>
</g>
<!-- 14 -->
<g id="node15" class="node">
<title>14</title>
<polygon fill="yellow" stroke="black" points="1708.62,-238.07 1632.62,-238.07 1632.62,-162.07 1708.62,-162.07 1708.62,-238.07"/>
<text text-anchor="middle" x="1670.62" y="-203.87" font-family="Times,serif" font-size="14.00">DW</text>
<text text-anchor="middle" x="1670.62" y="-188.87" font-family="Times,serif" font-size="14.00">flow=19</text>
</g>
<!-- 3&#45;&#45;14 -->
<g id="edge7" class="edge">
<title>3&#45;&#45;14</title>
<path fill="none" stroke="black" d="M1766.05,-274.63C1750.17,-262.23 1727.99,-244.89 1709,-230.06"/>
</g>
<!-- 45 -->
<g id="node46" class="node">
<title>45</title>
<path fill="none" stroke="black" d="M1895.88,-415.49C1895.88,-415.49 1883.88,-415.49 1883.88,-415.49 1877.88,-415.49 1871.88,-409.49 1871.88,-403.49 1871.88,-403.49 1871.88,-391.49 1871.88,-391.49 1871.88,-385.49 1877.88,-379.49 1883.88,-379.49 1883.88,-379.49 1895.88,-379.49 1895.88,-379.49 1901.88,-379.49 1907.88,-385.49 1907.88,-391.49 1907.88,-391.49 1907.88,-403.49 1907.88,-403.49 1907.88,-409.49 1901.88,-415.49 1895.88,-415.49"/>
<text text-anchor="middle" x="1889.88" y="-393.79" font-family="Times,serif" font-size="14.00">II</text>
</g>
<!-- 3&#45;&#45;45 -->
<g id="edge8" class="edge">
<title>3&#45;&#45;45</title>
<path fill="none" stroke="black" d="M1807.44,-312.13C1826.39,-331.75 1854.37,-360.72 1872.36,-379.35"/>
</g>
<!-- 36 -->
<g id="node37" class="node">
<title>36</title>
<path fill="none" stroke="black" d="M2642.47,-958.87C2642.47,-958.87 2629.47,-958.87 2629.47,-958.87 2623.47,-958.87 2617.47,-952.87 2617.47,-946.87 2617.47,-946.87 2617.47,-933.87 2617.47,-933.87 2617.47,-927.87 2623.47,-921.87 2629.47,-921.87 2629.47,-921.87 2642.47,-921.87 2642.47,-921.87 2648.47,-921.87 2654.47,-927.87 2654.47,-933.87 2654.47,-933.87 2654.47,-946.87 2654.47,-946.87 2654.47,-952.87 2648.47,-958.87 2642.47,-958.87"/>
<text text-anchor="middle" x="2635.97" y="-936.67" font-family="Times,serif" font-size="14.00">SC</text>
</g>
<!-- 4&#45;&#45;36 -->
<g id="edge10" class="edge">
<title>4&#45;&#45;36</title>
<path fill="none" stroke="black" d="M2248.05,-1066.42C2336.5,-1037.68 2552.8,-967.4 2617.44,-946.4"/>
</g>
<!-- 37 -->
<g id="node38" class="node">
<title>37</title>
<path fill="none" stroke="black" d="M2264.35,-1238.78C2264.35,-1238.78 2245.35,-1238.78 2245.35,-1238.78 2239.35,-1238.78 2233.35,-1232.78 2233.35,-1226.78 2233.35,-1226.78 2233.35,-1207.78 2233.35,-1207.78 2233.35,-1201.78 2239.35,-1195.78 2245.35,-1195.78 2245.35,-1195.78 2264.35,-1195.78 2264.35,-1195.78 2270.35,-1195.78 2276.35,-1201.78 2276.35,-1207.78 2276.35,-1207.78 2276.35,-1226.78 2276.35,-1226.78 2276.35,-1232.78 2270.35,-1238.78 2264.35,-1238.78"/>
<text text-anchor="middle" x="2254.85" y="-1213.58" font-family="Times,serif" font-size="14.00">MU</text>
</g>
<!-- 4&#45;&#45;37 -->
<g id="edge11" class="edge">
<title>4&#45;&#45;37</title>
<path fill="none" stroke="black" d="M2222.27,-1117.03C2230.49,-1142.32 2240.97,-1174.58 2247.79,-1195.57"/>
</g>
<!-- 56 -->
<g id="node57" class="node">
<title>56</title>
<path fill="none" stroke="black" d="M431.31,-1932.1C431.31,-1932.1 419.31,-1932.1 419.31,-1932.1 413.31,-1932.1 407.31,-1926.1 407.31,-1920.1 407.31,-1920.1 407.31,-1908.1 407.31,-1908.1 407.31,-1902.1 413.31,-1896.1 419.31,-1896.1 419.31,-1896.1 431.31,-1896.1 431.31,-1896.1 437.31,-1896.1 443.31,-1902.1 443.31,-1908.1 443.31,-1908.1 443.31,-1920.1 443.31,-1920.1 443.31,-1926.1 437.31,-1932.1 431.31,-1932.1"/>
<text text-anchor="middle" x="425.31" y="-1910.4" font-family="Times,serif" font-size="14.00">VT</text>
</g>
<!-- 4&#45;&#45;56 -->
<g id="edge9" class="edge">
<title>4&#45;&#45;56</title>
<path fill="none" stroke="black" d="M2171.76,-1096.66C1929.93,-1209.85 613.37,-1826.07 443.39,-1905.63"/>
</g>
<!-- 5 -->
<g id="node6" class="node">
<title>5</title>
<path fill="none" stroke="black" d="M686.82,-2079.62C686.82,-2079.62 674.82,-2079.62 674.82,-2079.62 668.82,-2079.62 662.82,-2073.62 662.82,-2067.62 662.82,-2067.62 662.82,-2055.62 662.82,-2055.62 662.82,-2049.62 668.82,-2043.62 674.82,-2043.62 674.82,-2043.62 686.82,-2043.62 686.82,-2043.62 692.82,-2043.62 698.82,-2049.62 698.82,-2055.62 698.82,-2055.62 698.82,-2067.62 698.82,-2067.62 698.82,-2073.62 692.82,-2079.62 686.82,-2079.62"/>
<text text-anchor="middle" x="680.82" y="-2057.92" font-family="Times,serif" font-size="14.00">SL</text>
</g>
<!-- 9 -->
<g id="node10" class="node">
<title>9</title>
<path fill="none" stroke="black" d="M828.46,-2126.31C828.46,-2126.31 814.46,-2126.31 814.46,-2126.31 808.46,-2126.31 802.46,-2120.31 802.46,-2114.31 802.46,-2114.31 802.46,-2100.31 802.46,-2100.31 802.46,-2094.31 808.46,-2088.31 814.46,-2088.31 814.46,-2088.31 828.46,-2088.31 828.46,-2088.31 834.46,-2088.31 840.46,-2094.31 840.46,-2100.31 840.46,-2100.31 840.46,-2114.31 840.46,-2114.31 840.46,-2120.31 834.46,-2126.31 828.46,-2126.31"/>
<text text-anchor="middle" x="821.46" y="-2103.61" font-family="Times,serif" font-size="14.00">DS</text>
</g>
<!-- 5&#45;&#45;9 -->
<g id="edge13" class="edge">
<title>5&#45;&#45;9</title>
<path fill="none" stroke="black" d="M698.92,-2067.5C725.48,-2076.13 774.81,-2092.15 802.08,-2101.01"/>
</g>
<!-- 15 -->
<g id="node16" class="node">
<title>15</title>
<polygon fill="yellow" stroke="black" points="353.41,-1853.14 277.41,-1853.14 277.41,-1777.14 353.41,-1777.14 353.41,-1853.14"/>
<text text-anchor="middle" x="315.41" y="-1818.94" font-family="Times,serif" font-size="14.00">RP</text>
<text text-anchor="middle" x="315.41" y="-1803.94" font-family="Times,serif" font-size="14.00">flow=14</text>
</g>
<!-- 5&#45;&#45;15 -->
<g id="edge12" class="edge">
<title>5&#45;&#45;15</title>
<path fill="none" stroke="black" d="M662.7,-2049.39C606.03,-2011.17 431.33,-1893.34 353.5,-1840.84"/>
</g>
<!-- 6 -->
<g id="node7" class="node">
<title>6</title>
<polygon fill="yellow" stroke="black" points="2410.62,-892.81 2334.62,-892.81 2334.62,-816.81 2410.62,-816.81 2410.62,-892.81"/>
<text text-anchor="middle" x="2372.62" y="-858.61" font-family="Times,serif" font-size="14.00">FQ</text>
<text text-anchor="middle" x="2372.62" y="-843.61" font-family="Times,serif" font-size="14.00">flow=15</text>
</g>
<!-- 41 -->
<g id="node42" class="node">
<title>41</title>
<path fill="none" stroke="black" d="M2524.2,-872.81C2524.2,-872.81 2512.2,-872.81 2512.2,-872.81 2506.2,-872.81 2500.2,-866.81 2500.2,-860.81 2500.2,-860.81 2500.2,-848.81 2500.2,-848.81 2500.2,-842.81 2506.2,-836.81 2512.2,-836.81 2512.2,-836.81 2524.2,-836.81 2524.2,-836.81 2530.2,-836.81 2536.2,-842.81 2536.2,-848.81 2536.2,-848.81 2536.2,-860.81 2536.2,-860.81 2536.2,-866.81 2530.2,-872.81 2524.2,-872.81"/>
<text text-anchor="middle" x="2518.2" y="-851.11" font-family="Times,serif" font-size="14.00">EI</text>
</g>
<!-- 6&#45;&#45;41 -->
<g id="edge14" class="edge">
<title>6&#45;&#45;41</title>
<path fill="none" stroke="black" d="M2410.87,-854.81C2439.68,-854.81 2477.89,-854.81 2500.09,-854.81"/>
</g>
<!-- 52 -->
<g id="node53" class="node">
<title>52</title>
<path fill="none" stroke="black" d="M2260.85,-958.37C2260.85,-958.37 2248.85,-958.37 2248.85,-958.37 2242.85,-958.37 2236.85,-952.37 2236.85,-946.37 2236.85,-946.37 2236.85,-934.37 2236.85,-934.37 2236.85,-928.37 2242.85,-922.37 2248.85,-922.37 2248.85,-922.37 2260.85,-922.37 2260.85,-922.37 2266.85,-922.37 2272.85,-928.37 2272.85,-934.37 2272.85,-934.37 2272.85,-946.37 2272.85,-946.37 2272.85,-952.37 2266.85,-958.37 2260.85,-958.37"/>
<text text-anchor="middle" x="2254.85" y="-936.67" font-family="Times,serif" font-size="14.00">YC</text>
</g>
<!-- 6&#45;&#45;52 -->
<g id="edge15" class="edge">
<title>6&#45;&#45;52</title>
<path fill="none" stroke="black" d="M2334.38,-882.59C2313.83,-897.52 2289.44,-915.24 2273.13,-927.09"/>
</g>
<!-- 7 -->
<g id="node8" class="node">
<title>7</title>
<path fill="none" stroke="black" d="M88.34,-1459.86C88.34,-1459.86 75.34,-1459.86 75.34,-1459.86 69.34,-1459.86 63.34,-1453.86 63.34,-1447.86 63.34,-1447.86 63.34,-1434.86 63.34,-1434.86 63.34,-1428.86 69.34,-1422.86 75.34,-1422.86 75.34,-1422.86 88.34,-1422.86 88.34,-1422.86 94.34,-1422.86 100.34,-1428.86 100.34,-1434.86 100.34,-1434.86 100.34,-1447.86 100.34,-1447.86 100.34,-1453.86 94.34,-1459.86 88.34,-1459.86"/>
<text text-anchor="middle" x="81.84" y="-1437.66" font-family="Times,serif" font-size="14.00">KF</text>
</g>
<!-- 8 -->
<g id="node9" class="node">
<title>8</title>
<path fill="none" stroke="black" d="M148.99,-1595.45C148.99,-1595.45 134.99,-1595.45 134.99,-1595.45 128.99,-1595.45 122.99,-1589.45 122.99,-1583.45 122.99,-1583.45 122.99,-1569.45 122.99,-1569.45 122.99,-1563.45 128.99,-1557.45 134.99,-1557.45 134.99,-1557.45 148.99,-1557.45 148.99,-1557.45 154.99,-1557.45 160.99,-1563.45 160.99,-1569.45 160.99,-1569.45 160.99,-1583.45 160.99,-1583.45 160.99,-1589.45 154.99,-1595.45 148.99,-1595.45"/>
<text text-anchor="middle" x="141.99" y="-1572.75" font-family="Times,serif" font-size="14.00">QP</text>
</g>
<!-- 7&#45;&#45;8 -->
<g id="edge17" class="edge">
<title>7&#45;&#45;8</title>
<path fill="none" stroke="black" d="M90.08,-1459.86C101.47,-1485.44 121.92,-1531.38 133.46,-1557.3"/>
</g>
<!-- 39 -->
<g id="node40" class="node">
<title>39</title>
<polygon fill="yellow" stroke="black" points="74.58,-1332.71 7.58,-1332.71 7.58,-1265.71 74.58,-1265.71 74.58,-1332.71"/>
<text text-anchor="middle" x="41.08" y="-1303.01" font-family="Times,serif" font-size="14.00">FL</text>
<text text-anchor="middle" x="41.08" y="-1288.01" font-family="Times,serif" font-size="14.00">flow=8</text>
</g>
<!-- 7&#45;&#45;39 -->
<g id="edge16" class="edge">
<title>7&#45;&#45;39</title>
<path fill="none" stroke="black" d="M76.51,-1422.77C69.97,-1399.97 58.77,-1360.88 50.7,-1332.77"/>
</g>
<!-- 8&#45;&#45;15 -->
<g id="edge18" class="edge">
<title>8&#45;&#45;15</title>
<path fill="none" stroke="black" d="M155.89,-1595.58C184.42,-1634.85 250.08,-1725.22 287.66,-1776.95"/>
</g>
<!-- 17 -->
<g id="node18" class="node">
<title>17</title>
<polygon fill="aqua" stroke="black" points="1560.55,-2049.52 1524.55,-2049.52 1524.55,-2013.52 1560.55,-2013.52 1560.55,-2049.52"/>
<text text-anchor="middle" x="1542.55" y="-2027.82" font-family="Times,serif" font-size="14.00">AA</text>
</g>
<!-- 9&#45;&#45;17 -->
<g id="edge19" class="edge">
<title>9&#45;&#45;17</title>
<path fill="none" stroke="black" d="M840.75,-2105.29C943.44,-2094.49 1425.01,-2043.88 1524.53,-2033.42"/>
</g>
<!-- 10 -->
<g id="node11" class="node">
<title>10</title>
<path fill="none" stroke="black" d="M973.09,-2150.99C973.09,-2150.99 961.09,-2150.99 961.09,-2150.99 955.09,-2150.99 949.09,-2144.99 949.09,-2138.99 949.09,-2138.99 949.09,-2126.99 949.09,-2126.99 949.09,-2120.99 955.09,-2114.99 961.09,-2114.99 961.09,-2114.99 973.09,-2114.99 973.09,-2114.99 979.09,-2114.99 985.09,-2120.99 985.09,-2126.99 985.09,-2126.99 985.09,-2138.99 985.09,-2138.99 985.09,-2144.99 979.09,-2150.99 973.09,-2150.99"/>
<text text-anchor="middle" x="967.09" y="-2129.29" font-family="Times,serif" font-size="14.00">IK</text>
</g>
<!-- 10&#45;&#45;17 -->
<g id="edge21" class="edge">
<title>10&#45;&#45;17</title>
<path fill="none" stroke="black" d="M985.27,-2129.79C1071.43,-2114.59 1438.2,-2049.92 1524.37,-2034.73"/>
</g>
<!-- 32 -->
<g id="node33" class="node">
<title>32</title>
<polygon fill="yellow" stroke="black" points="859.46,-88.34 783.46,-88.34 783.46,-12.34 859.46,-12.34 859.46,-88.34"/>
<text text-anchor="middle" x="821.46" y="-54.14" font-family="Times,serif" font-size="14.00">XC</text>
<text text-anchor="middle" x="821.46" y="-39.14" font-family="Times,serif" font-size="14.00">flow=17</text>
</g>
<!-- 10&#45;&#45;32 -->
<g id="edge20" class="edge">
<title>10&#45;&#45;32</title>
<path fill="none" stroke="black" d="M965.83,-2114.99C952.81,-1928.72 842.74,-354.62 824.13,-88.48"/>
</g>
<!-- 11 -->
<g id="node12" class="node">
<title>11</title>
<path fill="none" stroke="black" d="M2252.55,-2077.77C2252.55,-2077.77 2236.55,-2077.77 2236.55,-2077.77 2230.55,-2077.77 2224.55,-2071.77 2224.55,-2065.77 2224.55,-2065.77 2224.55,-2049.77 2224.55,-2049.77 2224.55,-2043.77 2230.55,-2037.77 2236.55,-2037.77 2236.55,-2037.77 2252.55,-2037.77 2252.55,-2037.77 2258.55,-2037.77 2264.55,-2043.77 2264.55,-2049.77 2264.55,-2049.77 2264.55,-2065.77 2264.55,-2065.77 2264.55,-2071.77 2258.55,-2077.77 2252.55,-2077.77"/>
<text text-anchor="middle" x="2244.55" y="-2054.07" font-family="Times,serif" font-size="14.00">HQ</text>
</g>
<!-- 18 -->
<g id="node19" class="node">
<title>18</title>
<polygon fill="yellow" stroke="black" points="2382.14,-2179.34 2306.14,-2179.34 2306.14,-2103.34 2382.14,-2103.34 2382.14,-2179.34"/>
<text text-anchor="middle" x="2344.14" y="-2145.14" font-family="Times,serif" font-size="14.00">VM</text>
<text text-anchor="middle" x="2344.14" y="-2130.14" font-family="Times,serif" font-size="14.00">flow=18</text>
</g>
<!-- 11&#45;&#45;18 -->
<g id="edge22" class="edge">
<title>11&#45;&#45;18</title>
<path fill="none" stroke="black" d="M2264.71,-2074.68C2276.53,-2084.6 2291.85,-2097.46 2305.89,-2109.24"/>
</g>
<!-- 58 -->
<g id="node59" class="node">
<title>58</title>
<polygon fill="yellow" stroke="black" points="2182.97,-2012.21 2106.97,-2012.21 2106.97,-1936.21 2182.97,-1936.21 2182.97,-2012.21"/>
<text text-anchor="middle" x="2144.97" y="-1978.01" font-family="Times,serif" font-size="14.00">WV</text>
<text text-anchor="middle" x="2144.97" y="-1963.01" font-family="Times,serif" font-size="14.00">flow=11</text>
</g>
<!-- 11&#45;&#45;58 -->
<g id="edge23" class="edge">
<title>11&#45;&#45;58</title>
<path fill="none" stroke="black" d="M2224.4,-2040.86C2212.58,-2030.94 2197.25,-2018.08 2183.22,-2006.31"/>
</g>
<!-- 12 -->
<g id="node13" class="node">
<title>12</title>
<path fill="none" stroke="black" d="M2053.5,-1910.83C2053.5,-1910.83 2036.5,-1910.83 2036.5,-1910.83 2030.5,-1910.83 2024.5,-1904.83 2024.5,-1898.83 2024.5,-1898.83 2024.5,-1881.83 2024.5,-1881.83 2024.5,-1875.83 2030.5,-1869.83 2036.5,-1869.83 2036.5,-1869.83 2053.5,-1869.83 2053.5,-1869.83 2059.5,-1869.83 2065.5,-1875.83 2065.5,-1881.83 2065.5,-1881.83 2065.5,-1898.83 2065.5,-1898.83 2065.5,-1904.83 2059.5,-1910.83 2053.5,-1910.83"/>
<text text-anchor="middle" x="2045" y="-1886.63" font-family="Times,serif" font-size="14.00">WR</text>
</g>
<!-- 12&#45;&#45;58 -->
<g id="edge24" class="edge">
<title>12&#45;&#45;58</title>
<path fill="none" stroke="black" d="M2065.71,-1907.71C2077.61,-1917.69 2092.92,-1930.54 2106.91,-1942.27"/>
</g>
<!-- 59 -->
<g id="node60" class="node">
<title>59</title>
<path fill="none" stroke="black" d="M1966.59,-1837.66C1966.59,-1837.66 1952.59,-1837.66 1952.59,-1837.66 1946.59,-1837.66 1940.59,-1831.66 1940.59,-1825.66 1940.59,-1825.66 1940.59,-1811.66 1940.59,-1811.66 1940.59,-1805.66 1946.59,-1799.66 1952.59,-1799.66 1952.59,-1799.66 1966.59,-1799.66 1966.59,-1799.66 1972.59,-1799.66 1978.59,-1805.66 1978.59,-1811.66 1978.59,-1811.66 1978.59,-1825.66 1978.59,-1825.66 1978.59,-1831.66 1972.59,-1837.66 1966.59,-1837.66"/>
<text text-anchor="middle" x="1959.59" y="-1814.96" font-family="Times,serif" font-size="14.00">HF</text>
</g>
<!-- 12&#45;&#45;59 -->
<g id="edge25" class="edge">
<title>12&#45;&#45;59</title>
<path fill="none" stroke="black" d="M2024.32,-1872.98C2010.4,-1861.3 1992.18,-1846 1978.61,-1834.62"/>
</g>
<!-- 13 -->
<g id="node14" class="node">
<title>13</title>
<polygon fill="yellow" stroke="black" points="258.35,-493.79 182.35,-493.79 182.35,-417.79 258.35,-417.79 258.35,-493.79"/>
<text text-anchor="middle" x="220.35" y="-459.59" font-family="Times,serif" font-size="14.00">HH</text>
<text text-anchor="middle" x="220.35" y="-444.59" font-family="Times,serif" font-size="14.00">flow=20</text>
</g>
<!-- 19 -->
<g id="node20" class="node">
<title>19</title>
<path fill="none" stroke="black" d="M554.9,-179.86C554.9,-179.86 540.9,-179.86 540.9,-179.86 534.9,-179.86 528.9,-173.86 528.9,-167.86 528.9,-167.86 528.9,-153.86 528.9,-153.86 528.9,-147.86 534.9,-141.86 540.9,-141.86 540.9,-141.86 554.9,-141.86 554.9,-141.86 560.9,-141.86 566.9,-147.86 566.9,-153.86 566.9,-153.86 566.9,-167.86 566.9,-167.86 566.9,-173.86 560.9,-179.86 554.9,-179.86"/>
<text text-anchor="middle" x="547.9" y="-157.16" font-family="Times,serif" font-size="14.00">NF</text>
</g>
<!-- 13&#45;&#45;19 -->
<g id="edge29" class="edge">
<title>13&#45;&#45;19</title>
<path fill="none" stroke="black" d="M258.57,-421.38C328.77,-358.17 475.9,-225.69 528.61,-178.24"/>
</g>
<!-- 28 -->
<g id="node29" class="node">
<title>28</title>
<path fill="none" stroke="black" d="M1983.3,-535.63C1983.3,-535.63 1970.3,-535.63 1970.3,-535.63 1964.3,-535.63 1958.3,-529.63 1958.3,-523.63 1958.3,-523.63 1958.3,-510.63 1958.3,-510.63 1958.3,-504.63 1964.3,-498.63 1970.3,-498.63 1970.3,-498.63 1983.3,-498.63 1983.3,-498.63 1989.3,-498.63 1995.3,-504.63 1995.3,-510.63 1995.3,-510.63 1995.3,-523.63 1995.3,-523.63 1995.3,-529.63 1989.3,-535.63 1983.3,-535.63"/>
<text text-anchor="middle" x="1976.8" y="-513.43" font-family="Times,serif" font-size="14.00">AR</text>
</g>
<!-- 13&#45;&#45;28 -->
<g id="edge30" class="edge">
<title>13&#45;&#45;28</title>
<path fill="none" stroke="black" d="M258.67,-457.13C498.48,-465.5 1788.03,-510.53 1958.25,-516.48"/>
</g>
<!-- 29 -->
<g id="node30" class="node">
<title>29</title>
<path fill="none" stroke="black" d="M88.34,-734.79C88.34,-734.79 75.34,-734.79 75.34,-734.79 69.34,-734.79 63.34,-728.79 63.34,-722.79 63.34,-722.79 63.34,-709.79 63.34,-709.79 63.34,-703.79 69.34,-697.79 75.34,-697.79 75.34,-697.79 88.34,-697.79 88.34,-697.79 94.34,-697.79 100.34,-703.79 100.34,-709.79 100.34,-709.79 100.34,-722.79 100.34,-722.79 100.34,-728.79 94.34,-734.79 88.34,-734.79"/>
<text text-anchor="middle" x="81.84" y="-712.59" font-family="Times,serif" font-size="14.00">CF</text>
</g>
<!-- 13&#45;&#45;29 -->
<g id="edge27" class="edge">
<title>13&#45;&#45;29</title>
<path fill="none" stroke="black" d="M200.07,-493.95C169.86,-550.76 114.2,-655.43 91.69,-697.78"/>
</g>
<!-- 34 -->
<g id="node35" class="node">
<title>34</title>
<path fill="none" stroke="black" d="M149.49,-600.7C149.49,-600.7 134.49,-600.7 134.49,-600.7 128.49,-600.7 122.49,-594.7 122.49,-588.7 122.49,-588.7 122.49,-573.7 122.49,-573.7 122.49,-567.7 128.49,-561.7 134.49,-561.7 134.49,-561.7 149.49,-561.7 149.49,-561.7 155.49,-561.7 161.49,-567.7 161.49,-573.7 161.49,-573.7 161.49,-588.7 161.49,-588.7 161.49,-594.7 155.49,-600.7 149.49,-600.7"/>
<text text-anchor="middle" x="141.99" y="-577.5" font-family="Times,serif" font-size="14.00">CN</text>
</g>
<!-- 13&#45;&#45;34 -->
<g id="edge28" class="edge">
<title>13&#45;&#45;34</title>
<path fill="none" stroke="black" d="M196.42,-494.1C182.46,-516.43 165.45,-543.65 154.21,-561.65"/>
</g>
<!-- 57 -->
<g id="node58" class="node">
<title>57</title>
<path fill="none" stroke="black" d="M1267.95,-2140.69C1267.95,-2140.69 1255.95,-2140.69 1255.95,-2140.69 1249.95,-2140.69 1243.95,-2134.69 1243.95,-2128.69 1243.95,-2128.69 1243.95,-2116.69 1243.95,-2116.69 1243.95,-2110.69 1249.95,-2104.69 1255.95,-2104.69 1255.95,-2104.69 1267.95,-2104.69 1267.95,-2104.69 1273.95,-2104.69 1279.95,-2110.69 1279.95,-2116.69 1279.95,-2116.69 1279.95,-2128.69 1279.95,-2128.69 1279.95,-2134.69 1273.95,-2140.69 1267.95,-2140.69"/>
<text text-anchor="middle" x="1261.95" y="-2118.99" font-family="Times,serif" font-size="14.00">PI</text>
</g>
<!-- 13&#45;&#45;57 -->
<g id="edge26" class="edge">
<title>13&#45;&#45;57</title>
<path fill="none" stroke="black" d="M244.32,-494.14C389.54,-726.55 1149,-1941.94 1250.69,-2104.67"/>
</g>
<!-- 35 -->
<g id="node36" class="node">
<title>35</title>
<path fill="none" stroke="black" d="M1412.44,-89.73C1412.44,-89.73 1398.44,-89.73 1398.44,-89.73 1392.44,-89.73 1386.44,-83.73 1386.44,-77.73 1386.44,-77.73 1386.44,-63.73 1386.44,-63.73 1386.44,-57.73 1392.44,-51.73 1398.44,-51.73 1398.44,-51.73 1412.44,-51.73 1412.44,-51.73 1418.44,-51.73 1424.44,-57.73 1424.44,-63.73 1424.44,-63.73 1424.44,-77.73 1424.44,-77.73 1424.44,-83.73 1418.44,-89.73 1412.44,-89.73"/>
<text text-anchor="middle" x="1405.44" y="-67.03" font-family="Times,serif" font-size="14.00">KD</text>
</g>
<!-- 14&#45;&#45;35 -->
<g id="edge31" class="edge">
<title>14&#45;&#45;35</title>
<path fill="none" stroke="black" d="M1632.34,-181.4C1574.83,-153.35 1468.22,-101.35 1424.7,-80.13"/>
</g>
<!-- 47 -->
<g id="node48" class="node">
<title>47</title>
<path fill="none" stroke="black" d="M1549.55,-145.13C1549.55,-145.13 1535.55,-145.13 1535.55,-145.13 1529.55,-145.13 1523.55,-139.13 1523.55,-133.13 1523.55,-133.13 1523.55,-119.13 1523.55,-119.13 1523.55,-113.13 1529.55,-107.13 1535.55,-107.13 1535.55,-107.13 1549.55,-107.13 1549.55,-107.13 1555.55,-107.13 1561.55,-113.13 1561.55,-119.13 1561.55,-119.13 1561.55,-133.13 1561.55,-133.13 1561.55,-139.13 1555.55,-145.13 1549.55,-145.13"/>
<text text-anchor="middle" x="1542.55" y="-122.43" font-family="Times,serif" font-size="14.00">HS</text>
</g>
<!-- 14&#45;&#45;47 -->
<g id="edge32" class="edge">
<title>14&#45;&#45;47</title>
<path fill="none" stroke="black" d="M1632.54,-178.09C1609.24,-164.63 1580.42,-148 1561.77,-137.23"/>
</g>
<!-- 22 -->
<g id="node23" class="node">
<title>22</title>
<path fill="none" stroke="black" d="M228.85,-1722.36C228.85,-1722.36 211.85,-1722.36 211.85,-1722.36 205.85,-1722.36 199.85,-1716.36 199.85,-1710.36 199.85,-1710.36 199.85,-1693.36 199.85,-1693.36 199.85,-1687.36 205.85,-1681.36 211.85,-1681.36 211.85,-1681.36 228.85,-1681.36 228.85,-1681.36 234.85,-1681.36 240.85,-1687.36 240.85,-1693.36 240.85,-1693.36 240.85,-1710.36 240.85,-1710.36 240.85,-1716.36 234.85,-1722.36 228.85,-1722.36"/>
<text text-anchor="middle" x="220.35" y="-1698.16" font-family="Times,serif" font-size="14.00">WP</text>
</g>
<!-- 15&#45;&#45;22 -->
<g id="edge35" class="edge">
<title>15&#45;&#45;22</title>
<path fill="none" stroke="black" d="M283.49,-1777.11C268.18,-1758.85 250.42,-1737.7 237.65,-1722.48"/>
</g>
<!-- 44 -->
<g id="node45" class="node">
<title>44</title>
<path fill="none" stroke="black" d="M555.4,-2016.29C555.4,-2016.29 540.4,-2016.29 540.4,-2016.29 534.4,-2016.29 528.4,-2010.29 528.4,-2004.29 528.4,-2004.29 528.4,-1989.29 528.4,-1989.29 528.4,-1983.29 534.4,-1977.29 540.4,-1977.29 540.4,-1977.29 555.4,-1977.29 555.4,-1977.29 561.4,-1977.29 567.4,-1983.29 567.4,-1989.29 567.4,-1989.29 567.4,-2004.29 567.4,-2004.29 567.4,-2010.29 561.4,-2016.29 555.4,-2016.29"/>
<text text-anchor="middle" x="547.9" y="-1993.09" font-family="Times,serif" font-size="14.00">BH</text>
</g>
<!-- 15&#45;&#45;44 -->
<g id="edge33" class="edge">
<title>15&#45;&#45;44</title>
<path fill="none" stroke="black" d="M353.54,-1844.94C403.65,-1884.09 489.81,-1951.4 528.32,-1981.49"/>
</g>
<!-- 54 -->
<g id="node55" class="node">
<title>54</title>
<path fill="none" stroke="black" d="M2102.8,-804.66C2102.8,-804.66 2090.8,-804.66 2090.8,-804.66 2084.8,-804.66 2078.8,-798.66 2078.8,-792.66 2078.8,-792.66 2078.8,-780.66 2078.8,-780.66 2078.8,-774.66 2084.8,-768.66 2090.8,-768.66 2090.8,-768.66 2102.8,-768.66 2102.8,-768.66 2108.8,-768.66 2114.8,-774.66 2114.8,-780.66 2114.8,-780.66 2114.8,-792.66 2114.8,-792.66 2114.8,-798.66 2108.8,-804.66 2102.8,-804.66"/>
<text text-anchor="middle" x="2096.8" y="-782.96" font-family="Times,serif" font-size="14.00">LI</text>
</g>
<!-- 15&#45;&#45;54 -->
<g id="edge34" class="edge">
<title>15&#45;&#45;54</title>
<path fill="none" stroke="black" d="M353.44,-1793.19C594.84,-1653.81 1909.07,-895.04 2078.75,-797.08"/>
</g>
<!-- 16 -->
<g id="node17" class="node">
<title>16</title>
<path fill="none" stroke="black" d="M687.82,-115.04C687.82,-115.04 673.82,-115.04 673.82,-115.04 667.82,-115.04 661.82,-109.04 661.82,-103.04 661.82,-103.04 661.82,-89.04 661.82,-89.04 661.82,-83.04 667.82,-77.04 673.82,-77.04 673.82,-77.04 687.82,-77.04 687.82,-77.04 693.82,-77.04 699.82,-83.04 699.82,-89.04 699.82,-89.04 699.82,-103.04 699.82,-103.04 699.82,-109.04 693.82,-115.04 687.82,-115.04"/>
<text text-anchor="middle" x="680.82" y="-92.34" font-family="Times,serif" font-size="14.00">EC</text>
</g>
<!-- 16&#45;&#45;19 -->
<g id="edge36" class="edge">
<title>16&#45;&#45;19</title>
<path fill="none" stroke="black" d="M661.77,-105.33C636.51,-117.65 592.16,-139.28 566.91,-151.59"/>
</g>
<!-- 16&#45;&#45;32 -->
<g id="edge37" class="edge">
<title>16&#45;&#45;32</title>
<path fill="none" stroke="black" d="M700.08,-89.78C721.44,-82.84 756.45,-71.46 783.4,-62.71"/>
</g>
<!-- 26 -->
<g id="node27" class="node">
<title>26</title>
<path fill="none" stroke="black" d="M1122.38,-2157.65C1122.38,-2157.65 1107.38,-2157.65 1107.38,-2157.65 1101.38,-2157.65 1095.38,-2151.65 1095.38,-2145.65 1095.38,-2145.65 1095.38,-2130.65 1095.38,-2130.65 1095.38,-2124.65 1101.38,-2118.65 1107.38,-2118.65 1107.38,-2118.65 1122.38,-2118.65 1122.38,-2118.65 1128.38,-2118.65 1134.38,-2124.65 1134.38,-2130.65 1134.38,-2130.65 1134.38,-2145.65 1134.38,-2145.65 1134.38,-2151.65 1128.38,-2157.65 1122.38,-2157.65"/>
<text text-anchor="middle" x="1114.88" y="-2134.45" font-family="Times,serif" font-size="14.00">UC</text>
</g>
<!-- 17&#45;&#45;26 -->
<g id="edge40" class="edge">
<title>17&#45;&#45;26</title>
<path fill="none" stroke="black" d="M1524.45,-2036.04C1455.13,-2053.32 1206.87,-2115.22 1134.69,-2133.21"/>
</g>
<!-- 30 -->
<g id="node31" class="node">
<title>30</title>
<path fill="none" stroke="black" d="M1679.12,-1978.08C1679.12,-1978.08 1662.12,-1978.08 1662.12,-1978.08 1656.12,-1978.08 1650.12,-1972.08 1650.12,-1966.08 1650.12,-1966.08 1650.12,-1949.08 1650.12,-1949.08 1650.12,-1943.08 1656.12,-1937.08 1662.12,-1937.08 1662.12,-1937.08 1679.12,-1937.08 1679.12,-1937.08 1685.12,-1937.08 1691.12,-1943.08 1691.12,-1949.08 1691.12,-1949.08 1691.12,-1966.08 1691.12,-1966.08 1691.12,-1972.08 1685.12,-1978.08 1679.12,-1978.08"/>
<text text-anchor="middle" x="1670.62" y="-1953.88" font-family="Times,serif" font-size="14.00">NH</text>
</g>
<!-- 17&#45;&#45;30 -->
<g id="edge38" class="edge">
<title>17&#45;&#45;30</title>
<path fill="none" stroke="black" d="M1560.63,-2021.09C1584.21,-2007.47 1625.36,-1983.71 1650.09,-1969.43"/>
</g>
<!-- 53 -->
<g id="node54" class="node">
<title>53</title>
<path fill="none" stroke="black" d="M1411.94,-2105.42C1411.94,-2105.42 1398.94,-2105.42 1398.94,-2105.42 1392.94,-2105.42 1386.94,-2099.42 1386.94,-2093.42 1386.94,-2093.42 1386.94,-2080.42 1386.94,-2080.42 1386.94,-2074.42 1392.94,-2068.42 1398.94,-2068.42 1398.94,-2068.42 1411.94,-2068.42 1411.94,-2068.42 1417.94,-2068.42 1423.94,-2074.42 1423.94,-2080.42 1423.94,-2080.42 1423.94,-2093.42 1423.94,-2093.42 1423.94,-2099.42 1417.94,-2105.42 1411.94,-2105.42"/>
<text text-anchor="middle" x="1405.44" y="-2083.22" font-family="Times,serif" font-size="14.00">ES</text>
</g>
<!-- 17&#45;&#45;53 -->
<g id="edge39" class="edge">
<title>17&#45;&#45;53</title>
<path fill="none" stroke="black" d="M1524.34,-2038.88C1498.26,-2049.42 1450.52,-2068.7 1424.16,-2079.36"/>
</g>
<!-- 20 -->
<g id="node21" class="node">
<title>20</title>
<path fill="none" stroke="black" d="M2052.22,-665.7C2052.22,-665.7 2040.22,-665.7 2040.22,-665.7 2034.22,-665.7 2028.22,-659.7 2028.22,-653.7 2028.22,-653.7 2028.22,-641.7 2028.22,-641.7 2028.22,-635.7 2034.22,-629.7 2040.22,-629.7 2040.22,-629.7 2052.22,-629.7 2052.22,-629.7 2058.22,-629.7 2064.22,-635.7 2064.22,-641.7 2064.22,-641.7 2064.22,-653.7 2064.22,-653.7 2064.22,-659.7 2058.22,-665.7 2052.22,-665.7"/>
<text text-anchor="middle" x="2046.22" y="-644" font-family="Times,serif" font-size="14.00">PS</text>
</g>
<!-- 20&#45;&#45;28 -->
<g id="edge41" class="edge">
<title>20&#45;&#45;28</title>
<path fill="none" stroke="black" d="M2036.57,-629.54C2023.45,-604.88 2000.12,-560.99 1986.82,-535.97"/>
</g>
<!-- 20&#45;&#45;38 -->
<g id="edge42" class="edge">
<title>20&#45;&#45;38</title>
<path fill="none" stroke="black" d="M2051.43,-665.87C2064.47,-711.35 2098.74,-830.86 2116.51,-892.82"/>
</g>
<!-- 21 -->
<g id="node22" class="node">
<title>21</title>
<path fill="none" stroke="black" d="M2052.22,-1527.96C2052.22,-1527.96 2040.22,-1527.96 2040.22,-1527.96 2034.22,-1527.96 2028.22,-1521.96 2028.22,-1515.96 2028.22,-1515.96 2028.22,-1503.96 2028.22,-1503.96 2028.22,-1497.96 2034.22,-1491.96 2040.22,-1491.96 2040.22,-1491.96 2052.22,-1491.96 2052.22,-1491.96 2058.22,-1491.96 2064.22,-1497.96 2064.22,-1503.96 2064.22,-1503.96 2064.22,-1515.96 2064.22,-1515.96 2064.22,-1521.96 2058.22,-1527.96 2052.22,-1527.96"/>
<text text-anchor="middle" x="2046.22" y="-1506.26" font-family="Times,serif" font-size="14.00">IL</text>
</g>
<!-- 21&#45;&#45;32 -->
<g id="edge43" class="edge">
<title>21&#45;&#45;32</title>
<path fill="none" stroke="black" d="M2030.96,-1491.76C1904.66,-1341.25 1032.76,-302.15 853.6,-88.64"/>
</g>
<!-- 49 -->
<g id="node50" class="node">
<title>49</title>
<path fill="none" stroke="black" d="M1983.3,-1659.03C1983.3,-1659.03 1970.3,-1659.03 1970.3,-1659.03 1964.3,-1659.03 1958.3,-1653.03 1958.3,-1647.03 1958.3,-1647.03 1958.3,-1634.03 1958.3,-1634.03 1958.3,-1628.03 1964.3,-1622.03 1970.3,-1622.03 1970.3,-1622.03 1983.3,-1622.03 1983.3,-1622.03 1989.3,-1622.03 1995.3,-1628.03 1995.3,-1634.03 1995.3,-1634.03 1995.3,-1647.03 1995.3,-1647.03 1995.3,-1653.03 1989.3,-1659.03 1983.3,-1659.03"/>
<text text-anchor="middle" x="1976.8" y="-1636.83" font-family="Times,serif" font-size="14.00">KZ</text>
</g>
<!-- 21&#45;&#45;49 -->
<g id="edge44" class="edge">
<title>21&#45;&#45;49</title>
<path fill="none" stroke="black" d="M2036.57,-1528.11C2023.45,-1552.78 2000.12,-1596.66 1986.82,-1621.68"/>
</g>
<!-- 22&#45;&#45;27 -->
<g id="edge45" class="edge">
<title>22&#45;&#45;27</title>
<path fill="none" stroke="black" d="M215.92,-1681.01C191.98,-1568.38 78.08,-1032.51 48.25,-892.16"/>
</g>
<!-- 23&#45;&#45;39 -->
<g id="edge46" class="edge">
<title>23&#45;&#45;39</title>
<path fill="none" stroke="black" d="M23.41,-1173.44C26.77,-1197.4 32.37,-1237.25 36.37,-1265.67"/>
</g>
<!-- 24 -->
<g id="node25" class="node">
<title>24</title>
<path fill="none" stroke="black" d="M2105.3,-1391.49C2105.3,-1391.49 2088.3,-1391.49 2088.3,-1391.49 2082.3,-1391.49 2076.3,-1385.49 2076.3,-1379.49 2076.3,-1379.49 2076.3,-1362.49 2076.3,-1362.49 2076.3,-1356.49 2082.3,-1350.49 2088.3,-1350.49 2088.3,-1350.49 2105.3,-1350.49 2105.3,-1350.49 2111.3,-1350.49 2117.3,-1356.49 2117.3,-1362.49 2117.3,-1362.49 2117.3,-1379.49 2117.3,-1379.49 2117.3,-1385.49 2111.3,-1391.49 2105.3,-1391.49"/>
<text text-anchor="middle" x="2096.8" y="-1367.29" font-family="Times,serif" font-size="14.00">XW</text>
</g>
<!-- 40 -->
<g id="node41" class="node">
<title>40</title>
<polygon fill="yellow" stroke="black" points="1923.38,-1793.66 1856.38,-1793.66 1856.38,-1726.66 1923.38,-1726.66 1923.38,-1793.66"/>
<text text-anchor="middle" x="1889.88" y="-1763.96" font-family="Times,serif" font-size="14.00">OL</text>
<text text-anchor="middle" x="1889.88" y="-1748.96" font-family="Times,serif" font-size="14.00">flow=4</text>
</g>
<!-- 24&#45;&#45;40 -->
<g id="edge47" class="edge">
<title>24&#45;&#45;40</title>
<path fill="none" stroke="black" d="M2085.82,-1391.64C2052.02,-1455.21 1949.33,-1648.35 1907.69,-1726.65"/>
</g>
<!-- 42 -->
<g id="node43" class="node">
<title>42</title>
<path fill="none" stroke="black" d="M2134.55,-1245.35C2134.55,-1245.35 2120.55,-1245.35 2120.55,-1245.35 2114.55,-1245.35 2108.55,-1239.35 2108.55,-1233.35 2108.55,-1233.35 2108.55,-1219.35 2108.55,-1219.35 2108.55,-1213.35 2114.55,-1207.35 2120.55,-1207.35 2120.55,-1207.35 2134.55,-1207.35 2134.55,-1207.35 2140.55,-1207.35 2146.55,-1213.35 2146.55,-1219.35 2146.55,-1219.35 2146.55,-1233.35 2146.55,-1233.35 2146.55,-1239.35 2140.55,-1245.35 2134.55,-1245.35"/>
<text text-anchor="middle" x="2127.55" y="-1222.65" font-family="Times,serif" font-size="14.00">NL</text>
</g>
<!-- 24&#45;&#45;42 -->
<g id="edge48" class="edge">
<title>24&#45;&#45;42</title>
<path fill="none" stroke="black" d="M2101.21,-1350.27C2107.15,-1322.3 2117.66,-1272.86 2123.44,-1245.65"/>
</g>
<!-- 25 -->
<g id="node26" class="node">
<title>25</title>
<path fill="none" stroke="black" d="M1122.38,-39C1122.38,-39 1107.38,-39 1107.38,-39 1101.38,-39 1095.38,-33 1095.38,-27 1095.38,-27 1095.38,-12 1095.38,-12 1095.38,-6 1101.38,0 1107.38,0 1107.38,0 1122.38,0 1122.38,0 1128.38,0 1134.38,-6 1134.38,-12 1134.38,-12 1134.38,-27 1134.38,-27 1134.38,-33 1128.38,-39 1122.38,-39"/>
<text text-anchor="middle" x="1114.88" y="-15.8" font-family="Times,serif" font-size="14.00">EH</text>
</g>
<!-- 50 -->
<g id="node51" class="node">
<title>50</title>
<path fill="none" stroke="black" d="M973.09,-42.66C973.09,-42.66 961.09,-42.66 961.09,-42.66 955.09,-42.66 949.09,-36.66 949.09,-30.66 949.09,-30.66 949.09,-18.66 949.09,-18.66 949.09,-12.66 955.09,-6.66 961.09,-6.66 961.09,-6.66 973.09,-6.66 973.09,-6.66 979.09,-6.66 985.09,-12.66 985.09,-18.66 985.09,-18.66 985.09,-30.66 985.09,-30.66 985.09,-36.66 979.09,-42.66 973.09,-42.66"/>
<text text-anchor="middle" x="967.09" y="-20.96" font-family="Times,serif" font-size="14.00">YR</text>
</g>
<!-- 25&#45;&#45;50 -->
<g id="edge50" class="edge">
<title>25&#45;&#45;50</title>
<path fill="none" stroke="black" d="M1095.26,-20.19C1066.52,-21.19 1013.38,-23.04 985.4,-24.02"/>
</g>
<!-- 51 -->
<g id="node52" class="node">
<title>51</title>
<polygon fill="yellow" stroke="black" points="1295.45,-68.46 1228.45,-68.46 1228.45,-1.46 1295.45,-1.46 1295.45,-68.46"/>
<text text-anchor="middle" x="1261.95" y="-38.76" font-family="Times,serif" font-size="14.00">UK</text>
<text text-anchor="middle" x="1261.95" y="-23.76" font-family="Times,serif" font-size="14.00">flow=7</text>
</g>
<!-- 25&#45;&#45;51 -->
<g id="edge49" class="edge">
<title>25&#45;&#45;51</title>
<path fill="none" stroke="black" d="M1134.41,-21.55C1158.32,-24.07 1199.21,-28.36 1228.24,-31.41"/>
</g>
<!-- 26&#45;&#45;39 -->
<g id="edge51" class="edge">
<title>26&#45;&#45;39</title>
<path fill="none" stroke="black" d="M1095.33,-2122.87C966.56,-2022.27 240.38,-1454.91 74.72,-1325.49"/>
</g>
<!-- 31 -->
<g id="node32" class="node">
<title>31</title>
<path fill="none" stroke="black" d="M321.41,-360.51C321.41,-360.51 309.41,-360.51 309.41,-360.51 303.41,-360.51 297.41,-354.51 297.41,-348.51 297.41,-348.51 297.41,-336.51 297.41,-336.51 297.41,-330.51 303.41,-324.51 309.41,-324.51 309.41,-324.51 321.41,-324.51 321.41,-324.51 327.41,-324.51 333.41,-330.51 333.41,-336.51 333.41,-336.51 333.41,-348.51 333.41,-348.51 333.41,-354.51 327.41,-360.51 321.41,-360.51"/>
<text text-anchor="middle" x="315.41" y="-338.81" font-family="Times,serif" font-size="14.00">RJ</text>
</g>
<!-- 27&#45;&#45;31 -->
<g id="edge54" class="edge">
<title>27&#45;&#45;31</title>
<path fill="none" stroke="black" d="M59.08,-824.59C111.95,-725.17 265.56,-436.27 305.71,-360.75"/>
</g>
<!-- 27&#45;&#45;34 -->
<g id="edge52" class="edge">
<title>27&#45;&#45;34</title>
<path fill="none" stroke="black" d="M53.35,-824.73C74.63,-766.28 117.71,-647.92 134.78,-601"/>
</g>
<!-- 55 -->
<g id="node56" class="node">
<title>55</title>
<path fill="none" stroke="black" d="M1793.65,-1885.04C1793.65,-1885.04 1780.65,-1885.04 1780.65,-1885.04 1774.65,-1885.04 1768.65,-1879.04 1768.65,-1873.04 1768.65,-1873.04 1768.65,-1860.04 1768.65,-1860.04 1768.65,-1854.04 1774.65,-1848.04 1780.65,-1848.04 1780.65,-1848.04 1793.65,-1848.04 1793.65,-1848.04 1799.65,-1848.04 1805.65,-1854.04 1805.65,-1860.04 1805.65,-1860.04 1805.65,-1873.04 1805.65,-1873.04 1805.65,-1879.04 1799.65,-1885.04 1793.65,-1885.04"/>
<text text-anchor="middle" x="1787.15" y="-1862.84" font-family="Times,serif" font-size="14.00">LD</text>
</g>
<!-- 27&#45;&#45;55 -->
<g id="edge53" class="edge">
<title>27&#45;&#45;55</title>
<path fill="none" stroke="black" d="M74.79,-877.91C301.25,-1008.66 1597.35,-1756.96 1768.49,-1855.77"/>
</g>
<!-- 29&#45;&#45;39 -->
<g id="edge55" class="edge">
<title>29&#45;&#45;39</title>
<path fill="none" stroke="black" d="M80.53,-735.03C74.7,-818.43 51.05,-1156.64 43.45,-1265.37"/>
</g>
<!-- 30&#45;&#45;55 -->
<g id="edge56" class="edge">
<title>30&#45;&#45;55</title>
<path fill="none" stroke="black" d="M1691.18,-1941.52C1713.01,-1924.47 1747.2,-1897.75 1768.33,-1881.24"/>
</g>
<!-- 48 -->
<g id="node49" class="node">
<title>48</title>
<path fill="none" stroke="black" d="M431.31,-261.56C431.31,-261.56 419.31,-261.56 419.31,-261.56 413.31,-261.56 407.31,-255.56 407.31,-249.56 407.31,-249.56 407.31,-237.56 407.31,-237.56 407.31,-231.56 413.31,-225.56 419.31,-225.56 419.31,-225.56 431.31,-225.56 431.31,-225.56 437.31,-225.56 443.31,-231.56 443.31,-237.56 443.31,-237.56 443.31,-249.56 443.31,-249.56 443.31,-255.56 437.31,-261.56 431.31,-261.56"/>
<text text-anchor="middle" x="425.31" y="-239.86" font-family="Times,serif" font-size="14.00">DJ</text>
</g>
<!-- 31&#45;&#45;48 -->
<g id="edge57" class="edge">
<title>31&#45;&#45;48</title>
<path fill="none" stroke="black" d="M333.56,-326.17C353.92,-307.83 386.76,-278.26 407.13,-259.92"/>
</g>
<!-- 32&#45;&#45;48 -->
<g id="edge59" class="edge">
<title>32&#45;&#45;48</title>
<path fill="none" stroke="black" d="M783.11,-69.04C699.62,-109.77 503.99,-205.18 443.47,-234.7"/>
</g>
<!-- 32&#45;&#45;50 -->
<g id="edge58" class="edge">
<title>32&#45;&#45;50</title>
<path fill="none" stroke="black" d="M859.72,-43.59C888.54,-38.51 926.77,-31.77 948.97,-27.86"/>
</g>
<!-- 46 -->
<g id="node47" class="node">
<title>46</title>
<path fill="none" stroke="black" d="M2524.2,-1320.85C2524.2,-1320.85 2512.2,-1320.85 2512.2,-1320.85 2506.2,-1320.85 2500.2,-1314.85 2500.2,-1308.85 2500.2,-1308.85 2500.2,-1296.85 2500.2,-1296.85 2500.2,-1290.85 2506.2,-1284.85 2512.2,-1284.85 2512.2,-1284.85 2524.2,-1284.85 2524.2,-1284.85 2530.2,-1284.85 2536.2,-1290.85 2536.2,-1296.85 2536.2,-1296.85 2536.2,-1308.85 2536.2,-1308.85 2536.2,-1314.85 2530.2,-1320.85 2524.2,-1320.85"/>
<text text-anchor="middle" x="2518.2" y="-1299.15" font-family="Times,serif" font-size="14.00">YA</text>
</g>
<!-- 33&#45;&#45;46 -->
<g id="edge60" class="edge">
<title>33&#45;&#45;46</title>
<path fill="none" stroke="black" d="M2597.74,-1245.06C2577.18,-1259.99 2552.79,-1277.72 2536.48,-1289.56"/>
</g>
<!-- 35&#45;&#45;51 -->
<g id="edge61" class="edge">
<title>35&#45;&#45;51</title>
<path fill="none" stroke="black" d="M1386.39,-65.98C1363.29,-60.22 1323.95,-50.41 1295.68,-43.37"/>
</g>
<!-- 36&#45;&#45;41 -->
<g id="edge62" class="edge">
<title>36&#45;&#45;41</title>
<path fill="none" stroke="black" d="M2617.31,-926.82C2595.13,-910.7 2558.36,-883.98 2536.39,-868.02"/>
</g>
<!-- 43 -->
<g id="node44" class="node">
<title>43</title>
<polygon fill="yellow" stroke="black" points="2410.62,-1340.85 2334.62,-1340.85 2334.62,-1264.85 2410.62,-1264.85 2410.62,-1340.85"/>
<text text-anchor="middle" x="2372.62" y="-1306.65" font-family="Times,serif" font-size="14.00">YP</text>
<text text-anchor="middle" x="2372.62" y="-1291.65" font-family="Times,serif" font-size="14.00">flow=21</text>
</g>
<!-- 37&#45;&#45;43 -->
<g id="edge63" class="edge">
<title>37&#45;&#45;43</title>
<path fill="none" stroke="black" d="M2276.45,-1232.97C2292.65,-1244.75 2315.25,-1261.17 2334.48,-1275.13"/>
</g>
<!-- 38&#45;&#45;45 -->
<g id="edge65" class="edge">
<title>38&#45;&#45;45</title>
<path fill="none" stroke="black" d="M2110.45,-892.92C2063.14,-786.65 1931.73,-491.49 1897.9,-415.51"/>
</g>
<!-- 38&#45;&#45;54 -->
<g id="edge64" class="edge">
<title>38&#45;&#45;54</title>
<path fill="none" stroke="black" d="M2119.47,-893.3C2113.42,-864.84 2105.41,-827.15 2100.71,-805.04"/>
</g>
<!-- 39&#45;&#45;47 -->
<g id="edge66" class="edge">
<title>39&#45;&#45;47</title>
<path fill="none" stroke="black" d="M74.9,-1272.78C281.12,-1111.66 1365.64,-264.34 1523.4,-141.09"/>
</g>
<!-- 40&#45;&#45;49 -->
<g id="edge67" class="edge">
<title>40&#45;&#45;49</title>
<path fill="none" stroke="black" d="M1914.32,-1726.52C1930.19,-1704.68 1950.27,-1677.04 1963.32,-1659.08"/>
</g>
<!-- 40&#45;&#45;59 -->
<g id="edge68" class="edge">
<title>40&#45;&#45;59</title>
<path fill="none" stroke="black" d="M1923.51,-1788.38C1929.35,-1793.29 1935.25,-1798.24 1940.53,-1802.67"/>
</g>
<!-- 42&#45;&#45;51 -->
<g id="edge69" class="edge">
<title>42&#45;&#45;51</title>
<path fill="none" stroke="black" d="M2113.6,-1207.15C2014.33,-1070.52 1415.06,-245.69 1286.3,-68.48"/>
</g>
<!-- 43&#45;&#45;46 -->
<g id="edge70" class="edge">
<title>43&#45;&#45;46</title>
<path fill="none" stroke="black" d="M2410.87,-1302.85C2439.68,-1302.85 2477.89,-1302.85 2500.09,-1302.85"/>
</g>
<!-- 43&#45;&#45;52 -->
<g id="edge71" class="edge">
<title>43&#45;&#45;52</title>
<path fill="none" stroke="black" d="M2360.24,-1264.74C2335.14,-1187.49 2279.09,-1014.99 2260.77,-958.6"/>
</g>
<!-- 44&#45;&#45;56 -->
<g id="edge72" class="edge">
<title>44&#45;&#45;56</title>
<path fill="none" stroke="black" d="M528.21,-1983.5C504.79,-1967.71 466.03,-1941.56 443.36,-1926.27"/>
</g>
<!-- 53&#45;&#45;57 -->
<g id="edge73" class="edge">
<title>53&#45;&#45;57</title>
<path fill="none" stroke="black" d="M1386.68,-2091.6C1359.03,-2098.49 1307.65,-2111.3 1280.26,-2118.13"/>
</g>
</g>
</svg>
