<?xml version="1.0" encoding="UTF-8" standalone="no"?>
<!DOCTYPE svg PUBLIC "-//W3C//DTD SVG 1.1//EN"
 "http://www.w3.org/Graphics/SVG/1.1/DTD/svg11.dtd">
<!-- Generated by graphviz version 2.43.0 (0)
 -->
<!-- Title: G Pages: 1 -->
<svg width="1087pt" height="698pt"
 viewBox="0.00 0.00 1087.43 698.00" xmlns="http://www.w3.org/2000/svg" xmlns:xlink="http://www.w3.org/1999/xlink">
<g id="graph0" class="graph" transform="scale(1 1) rotate(0) translate(4 694)">
<title>G</title>
<polygon fill="white" stroke="transparent" points="-4,4 -4,-694 1083.43,-694 1083.43,4 -4,4"/>
<!-- 0 -->
<g id="node1" class="node">
<title>0</title>
<polygon fill="yellow" stroke="black" points="264.44,-483.03 188.44,-483.03 188.44,-407.03 264.44,-407.03 264.44,-483.03"/>
<text text-anchor="middle" x="226.44" y="-448.83" font-family="Times,serif" font-size="14.00">XD</text>
<text text-anchor="middle" x="226.44" y="-433.83" font-family="Times,serif" font-size="14.00">flow=10</text>
</g>
<!-- 1 -->
<g id="node2" class="node">
<title>1</title>
<polygon fill="yellow" stroke="black" points="170.22,-388.81 94.22,-388.81 94.22,-312.81 170.22,-312.81 170.22,-388.81"/>
<text text-anchor="middle" x="132.22" y="-354.61" font-family="Times,serif" font-size="14.00">FQ</text>
<text text-anchor="middle" x="132.22" y="-339.61" font-family="Times,serif" font-size="14.00">flow=15</text>
</g>
<!-- 0&#45;&#45;1 -->
<g id="edge16" class="edge">
<title>0&#45;&#45;1</title>
<path fill="none" stroke="black" d="M188.39,-406.98C182.46,-401.05 176.34,-394.93 170.41,-389"/>
<text text-anchor="middle" x="174.4" y="-401.79" font-family="Times,serif" font-size="14.00">3</text>
</g>
<!-- 4 -->
<g id="node5" class="node">
<title>4</title>
<polygon fill="yellow" stroke="black" points="632.44,-483.03 556.44,-483.03 556.44,-407.03 632.44,-407.03 632.44,-483.03"/>
<text text-anchor="middle" x="594.44" y="-448.83" font-family="Times,serif" font-size="14.00">RP</text>
<text text-anchor="middle" x="594.44" y="-433.83" font-family="Times,serif" font-size="14.00">flow=14</text>
</g>
<!-- 0&#45;&#45;4 -->
<g id="edge26" class="edge">
<title>0&#45;&#45;4</title>
<path fill="none" stroke="black" d="M264.78,-445.03C335.47,-445.03 485.56,-445.03 556.18,-445.03"/>
<text text-anchor="middle" x="405.48" y="-448.83" font-family="Times,serif" font-size="14.00">3</text>
</g>
<!-- 9 -->
<g id="node10" class="node">
<title>9</title>
<polygon fill="yellow" stroke="black" points="170.22,-577.25 94.22,-577.25 94.22,-501.25 170.22,-501.25 170.22,-577.25"/>
<text text-anchor="middle" x="132.22" y="-543.05" font-family="Times,serif" font-size="14.00">TE</text>
<text text-anchor="middle" x="132.22" y="-528.05" font-family="Times,serif" font-size="14.00">flow=24</text>
</g>
<!-- 0&#45;&#45;9 -->
<g id="edge2" class="edge">
<title>0&#45;&#45;9</title>
<path fill="none" stroke="black" d="M188.39,-483.08C182.46,-489 176.34,-495.13 170.41,-501.05"/>
<text text-anchor="middle" x="174.4" y="-480.87" font-family="Times,serif" font-size="14.00">2</text>
</g>
<!-- 10 -->
<g id="node11" class="node">
<title>10</title>
<polygon fill="yellow" stroke="black" points="682.04,-346.76 606.04,-346.76 606.04,-270.76 682.04,-270.76 682.04,-346.76"/>
<text text-anchor="middle" x="644.04" y="-312.56" font-family="Times,serif" font-size="14.00">SU</text>
<text text-anchor="middle" x="644.04" y="-297.56" font-family="Times,serif" font-size="14.00">flow=22</text>
</g>
<!-- 0&#45;&#45;10 -->
<g id="edge1" class="edge">
<title>0&#45;&#45;10</title>
<path fill="none" stroke="black" d="M264.61,-432.57C344.04,-406.65 526.32,-347.17 605.81,-321.23"/>
<text text-anchor="middle" x="430.21" y="-380.7" font-family="Times,serif" font-size="14.00">2</text>
</g>
<!-- 13 -->
<g id="node14" class="node">
<title>13</title>
<polygon fill="yellow" stroke="black" points="76,-483.03 0,-483.03 0,-407.03 76,-407.03 76,-483.03"/>
<text text-anchor="middle" x="38" y="-448.83" font-family="Times,serif" font-size="14.00">YP</text>
<text text-anchor="middle" x="38" y="-433.83" font-family="Times,serif" font-size="14.00">flow=21</text>
</g>
<!-- 0&#45;&#45;13 -->
<g id="edge15" class="edge">
<title>0&#45;&#45;13</title>
<path fill="none" stroke="black" d="M188.31,-445.03C155.61,-445.03 108.75,-445.03 76.08,-445.03"/>
<text text-anchor="middle" x="127.19" y="-448.83" font-family="Times,serif" font-size="14.00">2</text>
</g>
<!-- 1&#45;&#45;13 -->
<g id="edge23" class="edge">
<title>1&#45;&#45;13</title>
<path fill="none" stroke="black" d="M94.17,-388.86C88.24,-394.78 82.12,-400.91 76.19,-406.83"/>
<text text-anchor="middle" x="80.18" y="-401.65" font-family="Times,serif" font-size="14.00">2</text>
</g>
<!-- 2 -->
<g id="node3" class="node">
<title>2</title>
<polygon fill="yellow" stroke="black" points="1043.64,-555.53 967.64,-555.53 967.64,-479.53 1043.64,-479.53 1043.64,-555.53"/>
<text text-anchor="middle" x="1005.64" y="-521.33" font-family="Times,serif" font-size="14.00">HH</text>
<text text-anchor="middle" x="1005.64" y="-506.33" font-family="Times,serif" font-size="14.00">flow=20</text>
</g>
<!-- 5 -->
<g id="node6" class="node">
<title>5</title>
<polygon fill="aqua" stroke="black" points="930.43,-646.62 894.43,-646.62 894.43,-610.62 930.43,-610.62 930.43,-646.62"/>
<text text-anchor="middle" x="912.43" y="-624.92" font-family="Times,serif" font-size="14.00">AA</text>
</g>
<!-- 2&#45;&#45;5 -->
<g id="edge27" class="edge">
<title>2&#45;&#45;5</title>
<path fill="none" stroke="black" d="M973.56,-555.76C957.98,-574.34 939.98,-595.79 927.57,-610.58"/>
<text text-anchor="middle" x="945.57" y="-586.97" font-family="Times,serif" font-size="14.00">3</text>
</g>
<!-- 7 -->
<g id="node8" class="node">
<title>7</title>
<polygon fill="yellow" stroke="black" points="803.12,-687.3 736.12,-687.3 736.12,-620.3 803.12,-620.3 803.12,-687.3"/>
<text text-anchor="middle" x="769.62" y="-657.6" font-family="Times,serif" font-size="14.00">CS</text>
<text text-anchor="middle" x="769.62" y="-642.6" font-family="Times,serif" font-size="14.00">flow=3</text>
</g>
<!-- 2&#45;&#45;7 -->
<g id="edge13" class="edge">
<title>2&#45;&#45;7</title>
<path fill="none" stroke="black" d="M967.46,-539.58C921.93,-565.87 846.55,-609.39 803.16,-634.43"/>
<text text-anchor="middle" x="880.31" y="-590.81" font-family="Times,serif" font-size="14.00">2</text>
</g>
<!-- 8 -->
<g id="node9" class="node">
<title>8</title>
<polygon fill="yellow" stroke="black" points="1043.64,-410.52 967.64,-410.52 967.64,-334.52 1043.64,-334.52 1043.64,-410.52"/>
<text text-anchor="middle" x="1005.64" y="-376.32" font-family="Times,serif" font-size="14.00">XC</text>
<text text-anchor="middle" x="1005.64" y="-361.32" font-family="Times,serif" font-size="14.00">flow=17</text>
</g>
<!-- 2&#45;&#45;8 -->
<g id="edge7" class="edge">
<title>2&#45;&#45;8</title>
<path fill="none" stroke="black" d="M1005.64,-479.43C1005.64,-458.2 1005.64,-431.85 1005.64,-410.62"/>
<text text-anchor="middle" x="1000.64" y="-448.83" font-family="Times,serif" font-size="14.00">3</text>
</g>
<!-- 2&#45;&#45;10 -->
<g id="edge11" class="edge">
<title>2&#45;&#45;10</title>
<path fill="none" stroke="black" d="M967.63,-495.59C898.18,-455.49 751.56,-370.84 682.08,-330.73"/>
<text text-anchor="middle" x="819.86" y="-416.96" font-family="Times,serif" font-size="14.00">3</text>
</g>
<!-- 11 -->
<g id="node12" class="node">
<title>11</title>
<polygon fill="yellow" stroke="black" points="677.54,-614.79 610.54,-614.79 610.54,-547.79 677.54,-547.79 677.54,-614.79"/>
<text text-anchor="middle" x="644.04" y="-585.09" font-family="Times,serif" font-size="14.00">FL</text>
<text text-anchor="middle" x="644.04" y="-570.09" font-family="Times,serif" font-size="14.00">flow=8</text>
</g>
<!-- 2&#45;&#45;11 -->
<g id="edge12" class="edge">
<title>2&#45;&#45;11</title>
<path fill="none" stroke="black" d="M967.63,-524.24C896.64,-536.75 745.01,-563.49 677.57,-575.38"/>
<text text-anchor="middle" x="817.6" y="-553.61" font-family="Times,serif" font-size="14.00">2</text>
</g>
<!-- 14 -->
<g id="node15" class="node">
<title>14</title>
<polygon fill="yellow" stroke="black" points="803.12,-269.75 736.12,-269.75 736.12,-202.75 803.12,-202.75 803.12,-269.75"/>
<text text-anchor="middle" x="769.62" y="-240.05" font-family="Times,serif" font-size="14.00">UK</text>
<text text-anchor="middle" x="769.62" y="-225.05" font-family="Times,serif" font-size="14.00">flow=7</text>
</g>
<!-- 2&#45;&#45;14 -->
<g id="edge14" class="edge">
<title>2&#45;&#45;14</title>
<path fill="none" stroke="black" d="M973.57,-479.31C927.18,-424.03 842.12,-322.65 797.94,-270"/>
<text text-anchor="middle" x="880.75" y="-378.45" font-family="Times,serif" font-size="14.00">2</text>
</g>
<!-- 3 -->
<g id="node4" class="node">
<title>3</title>
<polygon fill="yellow" stroke="black" points="597.77,-690 521.77,-690 521.77,-614 597.77,-614 597.77,-690"/>
<text text-anchor="middle" x="559.77" y="-655.8" font-family="Times,serif" font-size="14.00">DW</text>
<text text-anchor="middle" x="559.77" y="-640.8" font-family="Times,serif" font-size="14.00">flow=19</text>
</g>
<!-- 3&#45;&#45;11 -->
<g id="edge19" class="edge">
<title>3&#45;&#45;11</title>
<path fill="none" stroke="black" d="M597.96,-619.96C602.14,-616.45 606.37,-612.9 610.49,-609.44"/>
<text text-anchor="middle" x="599.23" y="-603.5" font-family="Times,serif" font-size="14.00">2</text>
</g>
<!-- 4&#45;&#45;5 -->
<g id="edge4" class="edge">
<title>4&#45;&#45;5</title>
<path fill="none" stroke="black" d="M632.48,-466.99C701.22,-506.68 843.69,-588.93 894.19,-618.09"/>
<text text-anchor="middle" x="758.34" y="-546.34" font-family="Times,serif" font-size="14.00">3</text>
</g>
<!-- 4&#45;&#45;7 -->
<g id="edge8" class="edge">
<title>4&#45;&#45;7</title>
<path fill="none" stroke="black" d="M626.57,-483.32C659.46,-522.52 710.08,-582.84 741.45,-620.23"/>
<text text-anchor="middle" x="689.01" y="-555.58" font-family="Times,serif" font-size="14.00">2</text>
</g>
<!-- 4&#45;&#45;10 -->
<g id="edge24" class="edge">
<title>4&#45;&#45;10</title>
<path fill="none" stroke="black" d="M608.39,-406.71C615.21,-387.97 623.39,-365.49 630.19,-346.79"/>
<text text-anchor="middle" x="614.29" y="-380.55" font-family="Times,serif" font-size="14.00">2</text>
</g>
<!-- 4&#45;&#45;11 -->
<g id="edge3" class="edge">
<title>4&#45;&#45;11</title>
<path fill="none" stroke="black" d="M608.39,-483.35C615.72,-503.5 624.63,-527.99 631.71,-547.44"/>
<text text-anchor="middle" x="615.05" y="-519.19" font-family="Times,serif" font-size="14.00">3</text>
</g>
<!-- 5&#45;&#45;7 -->
<g id="edge25" class="edge">
<title>5&#45;&#45;7</title>
<path fill="none" stroke="black" d="M894.34,-631.81C871.53,-635.83 831.84,-642.83 803.35,-647.85"/>
<text text-anchor="middle" x="843.85" y="-643.63" font-family="Times,serif" font-size="14.00">3</text>
</g>
<!-- 5&#45;&#45;8 -->
<g id="edge5" class="edge">
<title>5&#45;&#45;8</title>
<path fill="none" stroke="black" d="M918.99,-610.61C934.03,-569.28 971.3,-466.88 991.72,-410.78"/>
<text text-anchor="middle" x="950.35" y="-514.49" font-family="Times,serif" font-size="14.00">2</text>
</g>
<!-- 5&#45;&#45;11 -->
<g id="edge10" class="edge">
<title>5&#45;&#45;11</title>
<path fill="none" stroke="black" d="M894.4,-625.44C850.09,-617.63 735.29,-597.39 677.83,-587.25"/>
<text text-anchor="middle" x="781.12" y="-595.15" font-family="Times,serif" font-size="14.00">2</text>
</g>
<!-- 6 -->
<g id="node7" class="node">
<title>6</title>
<polygon fill="yellow" stroke="black" points="1079.43,-76 1003.43,-76 1003.43,0 1079.43,0 1079.43,-76"/>
<text text-anchor="middle" x="1041.43" y="-41.8" font-family="Times,serif" font-size="14.00">VM</text>
<text text-anchor="middle" x="1041.43" y="-26.8" font-family="Times,serif" font-size="14.00">flow=18</text>
</g>
<!-- 15 -->
<g id="node16" class="node">
<title>15</title>
<polygon fill="yellow" stroke="black" points="1005.43,-204.17 929.43,-204.17 929.43,-128.17 1005.43,-128.17 1005.43,-204.17"/>
<text text-anchor="middle" x="967.43" y="-169.97" font-family="Times,serif" font-size="14.00">WV</text>
<text text-anchor="middle" x="967.43" y="-154.97" font-family="Times,serif" font-size="14.00">flow=11</text>
</g>
<!-- 6&#45;&#45;15 -->
<g id="edge6" class="edge">
<title>6&#45;&#45;15</title>
<path fill="none" stroke="black" d="M1019.43,-76.11C1009.97,-92.49 998.94,-111.6 989.48,-127.99"/>
<text text-anchor="middle" x="999.45" y="-105.85" font-family="Times,serif" font-size="14.00">2</text>
</g>
<!-- 7&#45;&#45;8 -->
<g id="edge20" class="edge">
<title>7&#45;&#45;8</title>
<path fill="none" stroke="black" d="M797.86,-620.15C842.03,-567.51 927.21,-466 973.61,-410.7"/>
<text text-anchor="middle" x="880.73" y="-519.22" font-family="Times,serif" font-size="14.00">3</text>
</g>
<!-- 7&#45;&#45;11 -->
<g id="edge9" class="edge">
<title>7&#45;&#45;11</title>
<path fill="none" stroke="black" d="M735.97,-634.37C717.95,-623.97 695.82,-611.19 677.78,-600.78"/>
<text text-anchor="middle" x="701.88" y="-621.37" font-family="Times,serif" font-size="14.00">3</text>
</g>
<!-- 12 -->
<g id="node13" class="node">
<title>12</title>
<polygon fill="yellow" stroke="black" points="945.93,-294.93 878.93,-294.93 878.93,-227.93 945.93,-227.93 945.93,-294.93"/>
<text text-anchor="middle" x="912.43" y="-265.23" font-family="Times,serif" font-size="14.00">OL</text>
<text text-anchor="middle" x="912.43" y="-250.23" font-family="Times,serif" font-size="14.00">flow=4</text>
</g>
<!-- 8&#45;&#45;12 -->
<g id="edge21" class="edge">
<title>8&#45;&#45;12</title>
<path fill="none" stroke="black" d="M973.56,-334.29C962.93,-321.61 951.17,-307.6 940.83,-295.28"/>
<text text-anchor="middle" x="952.2" y="-318.58" font-family="Times,serif" font-size="14.00">3</text>
</g>
<!-- 8&#45;&#45;14 -->
<g id="edge22" class="edge">
<title>8&#45;&#45;14</title>
<path fill="none" stroke="black" d="M967.46,-350.48C921.93,-324.19 846.55,-280.67 803.16,-255.62"/>
<text text-anchor="middle" x="880.31" y="-306.85" font-family="Times,serif" font-size="14.00">3</text>
</g>
<!-- 9&#45;&#45;13 -->
<g id="edge18" class="edge">
<title>9&#45;&#45;13</title>
<path fill="none" stroke="black" d="M94.17,-501.2C88.24,-495.27 82.12,-489.15 76.19,-483.22"/>
<text text-anchor="middle" x="80.18" y="-496.01" font-family="Times,serif" font-size="14.00">2</text>
</g>
<!-- 12&#45;&#45;14 -->
<g id="edge17" class="edge">
<title>12&#45;&#45;14</title>
<path fill="none" stroke="black" d="M878.59,-255.47C855.82,-251.45 825.94,-246.18 803.22,-242.18"/>
<text text-anchor="middle" x="835.9" y="-252.62" font-family="Times,serif" font-size="14.00">3</text>
</g>
<!-- 12&#45;&#45;15 -->
<g id="edge28" class="edge">
<title>12&#45;&#45;15</title>
<path fill="none" stroke="black" d="M931.82,-227.85C936.21,-220.24 940.91,-212.11 945.4,-204.33"/>
<text text-anchor="middle" x="933.61" y="-204.89" font-family="Times,serif" font-size="14.00">3</text>
</g>
</g>
</svg>
